<svg width="18" height="18" viewBox="0 0 18 18" fill="none" xmlns="http://www.w3.org/2000/svg">
<path d="M12.048 6.23682C12.048 6.15947 11.9847 6.09619 11.9074 6.09619L10.7472 6.10147L8.99995 8.18447L7.25444 6.10322L6.09253 6.09795C6.01519 6.09795 5.9519 6.15947 5.9519 6.23857C5.9519 6.27197 5.96421 6.30361 5.9853 6.32998L8.27221 9.05459L5.9853 11.7774C5.96406 11.8032 5.95228 11.8355 5.9519 11.8688C5.9519 11.9462 6.01519 12.0095 6.09253 12.0095L7.25444 12.0042L8.99995 9.92119L10.7455 12.0024L11.9056 12.0077C11.983 12.0077 12.0462 11.9462 12.0462 11.8671C12.0462 11.8337 12.0339 11.8021 12.0128 11.7757L9.72944 9.05283L12.0163 6.32822C12.0374 6.30361 12.048 6.27021 12.048 6.23682Z" fill="#CC6666"/>
<path d="M9 1.14258C4.65117 1.14258 1.125 4.66875 1.125 9.01758C1.125 13.3664 4.65117 16.8926 9 16.8926C13.3488 16.8926 16.875 13.3664 16.875 9.01758C16.875 4.66875 13.3488 1.14258 9 1.14258ZM9 15.5566C5.38945 15.5566 2.46094 12.6281 2.46094 9.01758C2.46094 5.40703 5.38945 2.47852 9 2.47852C12.6105 2.47852 15.5391 5.40703 15.5391 9.01758C15.5391 12.6281 12.6105 15.5566 9 15.5566Z" fill="#CC6666"/>
</svg>
